{
  "accessors": [
    {
      "bufferView": 2,
      "componentType": 5126,
      "count": 9439,
      "max": [
        2.944617986679077,
        14.494993209838867,
        10.039005279541016
      ],
      "min": [
        -1.4594990015029907,
        -11.40549087524414,
        0.8687959909439087
      ],
      "type": "VEC3"
    },
    {
      "bufferView": 2,
      "byteOffset": 113268,
      "componentType": 5126,
      "count": 9439,
      "max": [
        1.0,
        1.0,
        1.0
      ],
      "min": [
        -1.0,
        -1.0,
        -1.0
      ],
      "type": "VEC3"
    },
    {
      "bufferView": 1,
      "componentType": 5126,
      "count": 9439,
      "max": [
        1.5750290155410767,
        1.0
      ],
      "min": [
        1.4000000192027073e-05,
        -0.0
      ],
      "type": "VEC2"
    },
    {
      "bufferView": 0,
      "componentType": 5125,
      "count": 45936,
      "type": "SCALAR"
    },
    {
      "bufferView": 2,
      "byteOffset": 226536,
      "componentType": 5126,
      "count": 9602,
      "max": [
        2.509592056274414,
        13.787239074707031,
        9.233165740966797
      ],
      "min": [
        -1.3853230476379395,
        -6.743640899658203,
        0.9096410274505615
      ],
      "type": "VEC3"
    },
    {
      "bufferView": 2,
      "byteOffset": 341760,
      "componentType": 5126,
      "count": 9602,
      "max": [
        1.0,
        1.0,
        0.9997897744178772
      ],
      "min": [
        -1.0,
        -1.0,
        -0.9999674558639526
      ],
      "type": "VEC3"
    },
    {
      "bufferView": 1,
      "byteOffset": 75512,
      "componentType": 5126,
      "count": 9602,
      "max": [
        1.0000159740447998,
        0.9968420267105103
      ],
      "min": [
        1.4999999621068127e-05,
        0.011110000312328339
      ],
      "type": "VEC2"
    },
    {
      "bufferView": 0,
      "byteOffset": 183744,
      "componentType": 5125,
      "count": 49806,
      "type": "SCALAR"
    }
  ],
  "asset": {
    "extras": {
      "author": "Luke Brown (https://sketchfab.com/brownb23)",
      "license": "CC-BY-4.0 (http://creativecommons.org/licenses/by/4.0/)",
      "source": "https://sketchfab.com/3d-models/chess-kit-94f58cabfc0044acb83c28f5b70c79f9",
      "title": "Chess Kit"
    },
    "generator": "Sketchfab-12.65.0",
    "version": "2.0"
  },
  "bufferViews": [
    {
      "buffer": 0,
      "byteLength": 382968,
      "name": "floatBufferViews",
      "target": 34963
    },
    {
      "buffer": 0,
      "byteLength": 152328,
      "byteOffset": 382968,
      "byteStride": 8,
      "name": "floatBufferViews",
      "target": 34962
    },
    {
      "buffer": 0,
      "byteLength": 456984,
      "byteOffset": 535296,
      "byteStride": 12,
      "name": "floatBufferViews",
      "target": 34962
    }
  ],
  "buffers": [
    {
      "byteLength": 992280,
      "uri": "scene.bin"
    }
  ],
  "materials": [
    {
      "doubleSided": true,
      "name": "initialShadingGroup",
      "pbrMetallicRoughness": {
        "metallicFactor": 0.0,
        "roughnessFactor": 0.6
      }
    }
  ],
  "meshes": [
    {
      "name": "Object_0",
      "primitives": [
        {
          "attributes": {
            "NORMAL": 1,
            "POSITION": 0,
            "TEXCOORD_0": 2
          },
          "indices": 3,
          "material": 0,
          "mode": 4
        }
      ]
    },
    {
      "name": "Object_1",
      "primitives": [
        {
          "attributes": {
            "NORMAL": 5,
            "POSITION": 4,
            "TEXCOORD_0": 6
          },
          "indices": 7,
          "material": 0,
          "mode": 4
        }
      ]
    }
  ],
  "nodes": [
    {
      "children": [
        1
      ],
      "matrix": [
        1.0,
        0.0,
        0.0,
        0.0,
        0.0,
        2.220446049250313e-16,
        -1.0,
        0.0,
        0.0,
        1.0,
        2.220446049250313e-16,
        0.0,
        0.0,
        0.0,
        0.0,
        1.0
      ],
      "name": "Sketchfab_model"
    },
    {
      "children": [
        2,
        3
      ],
      "name": "chessKitExport.obj.cleaner.materialmerger.gles"
    },
    {
      "mesh": 0,
      "name": "Object_2"
    },
    {
      "mesh": 1,
      "name": "Object_3"
    }
  ],
  "scene": 0,
  "scenes": [
    {
      "name": "Sketchfab_Scene",
      "nodes": [
        0
      ]
    }
  ]
}
